<svg width="17" height="20" viewBox="0 0 17 20" fill="none" xmlns="http://www.w3.org/2000/svg">
<path d="M8.52496 9.97501C10.8204 9.97501 12.6812 8.11419 12.6812 5.81876C12.6812 3.52332 10.8204 1.66251 8.52496 1.66251C6.22953 1.66251 4.36871 3.52332 4.36871 5.81876C4.36871 8.11419 6.22953 9.97501 8.52496 9.97501Z" stroke="white" stroke-width="1.5"/>
<path d="M12.6812 11.6375H12.9738C13.5815 11.6377 14.1683 11.8598 14.6238 12.262C15.0793 12.6643 15.3723 13.219 15.4476 13.822L15.7726 16.4189C15.8019 16.6528 15.781 16.8903 15.7114 17.1155C15.6419 17.3408 15.5252 17.5487 15.3692 17.7254C15.2131 17.9021 15.0213 18.0437 14.8063 18.1406C14.5914 18.2375 14.3584 18.2876 14.1226 18.2875H2.92733C2.69157 18.2876 2.4585 18.2375 2.24358 18.1406C2.02866 18.0437 1.83681 17.9021 1.68076 17.7254C1.52472 17.5487 1.40804 17.3408 1.33848 17.1155C1.26892 16.8903 1.24806 16.6528 1.2773 16.4189L1.60148 13.822C1.67688 13.2187 1.97007 12.6638 2.42594 12.2615C2.88181 11.8592 3.46895 11.6373 4.07695 11.6375H4.36871" stroke="white" stroke-width="1.5" stroke-linecap="round" stroke-linejoin="round"/>
</svg>
